# xmcd
#
# Track frame offsets:
#	150
#	16388
#	32573
#	49223
#	63661
#	79096
#	94056
#	108351
#	121896
#	136406
#	152291
#	168244
#	185642
#	197205
#	212985
#	230305
#	245890
#	261058
#	276698
#	292561
#	306774
#
# Disc length: 4302 seconds
#
# Revision: 1
# Processed by: cddbd v1.5.2PL0 Copyright (c) Steve Scherf et al.
# Submitted via: audiograbber 1.83.01
#
DISCID=2c10cc15
DTITLE=Various Artist - Halland's Country Hits Volume 1
DYEAR=1900
DGENRE=
TTITLE0=Shenandoah - Ghost In This House
TTITLE1=Shenandoah - I Got You
TTITLE2=Shenandoah - I Want To Be Loved Like That
TTITLE3=Shenandoah - Leavin's Been A Long Time Comin'
TTITLE4=Shenandoah - Mama Knows
TTITLE5=Shenandoah - Next To You, Next To Me
TTITLE6=Shenandoah - Rock My Baby
TTITLE7=Shenandoah - The Church On Cumberland Road
TTITLE8=Shenandoah - The Moon Over Georgia
TTITLE9=Shenandoah - Two Dozen Roses
TTITLE10=Ricky Scaggs - Lovin' Only Me
TTITLE11=Ricky Scaggs - Same Ol' Love
TTITLE12=Larry Stewart - Alright Already
TTITLE13=Doug Stone - A Jukebox With A Country Song
TTITLE14=Doug Stone - Come In Out Of The Pain
TTITLE15=Doug Stone - I Thought It Was You
TTITLE16=Doug Stone - I'd Be Better Off (In A Pine Box)
TTITLE17=Doug Stone - In A Different Light
TTITLE18=Doug Stone - I Never Knew Love
TTITLE19=Doug Stone - Made For Lovin' You
TTITLE20=Doug Stone - These Lips Don't Know How To Say...
EXTD=
EXTT0=
EXTT1=
EXTT2=
EXTT3=
EXTT4=
EXTT5=
EXTT6=
EXTT7=
EXTT8=
EXTT9=
EXTT10=
EXTT11=
EXTT12=
EXTT13=
EXTT14=
EXTT15=
EXTT16=
EXTT17=
EXTT18=
EXTT19=
EXTT20=
PLAYORDER=
